<svg xmlns="http://www.w3.org/2000/svg" width="199.91" height="199.93" viewBox="0 0 199.91 199.93" overflow="visible"><path d="M191.45 99.97c0-2.92 3.78-5.29 8.46-5.34-.09-1.68-.22-3.35-.39-5.01-4.53.59-8.5-1.14-8.94-3.98-.45-2.83 2.79-5.71 7.29-6.55-.35-1.64-.73-3.26-1.16-4.87-4.3 1.19-8.36.09-9.23-2.59-.87-2.68 1.77-5.96 5.95-7.53-.6-1.55-1.23-3.09-1.9-4.61-3.99 1.73-8.05 1.25-9.31-1.22-1.26-2.47.74-6.04 4.5-8.25-.83-1.44-1.7-2.85-2.59-4.24-3.62 2.22-7.58 2.33-9.18.13-1.6-2.2-.26-5.95 2.98-8.71-1.04-1.29-2.12-2.56-3.22-3.8-3.2 2.64-6.99 3.32-8.88 1.43-1.9-1.9-1.21-5.72 1.46-8.93-1.23-1.12-2.49-2.2-3.77-3.26-2.73 3.01-6.31 4.22-8.44 2.67-2.15-1.56-2.09-5.37-.03-8.92-1.39-.91-2.8-1.8-4.23-2.64-2.22 3.33-5.52 5.03-7.84 3.85-2.34-1.2-2.89-4.91-1.46-8.7-1.51-.69-3.04-1.34-4.59-1.96-1.68 3.59-4.65 5.74-7.11 4.94-2.48-.81-3.61-4.35-2.82-8.28-1.6-.45-3.21-.85-4.85-1.22-1.11 3.76-3.69 6.31-6.22 5.91-2.56-.41-4.23-3.69-4.09-7.67-1.65-.19-3.31-.35-4.98-.46-.52 3.86-2.66 6.75-5.21 6.75-2.59 0-4.75-2.97-5.24-6.92-1.67.06-3.34.16-5 .3.09 3.9-1.57 7.09-4.09 7.49-2.57.41-5.17-2.21-6.26-6.06-1.64.31-3.27.67-4.89 1.07.72 3.86-.42 7.3-2.86 8.09-2.49.81-5.49-1.41-7.17-5.07-1.59.58-3.14 1.18-4.67 1.82 1.35 3.73.77 7.35-1.53 8.52-2.35 1.2-5.7-.56-7.92-3.97-1.46.8-2.9 1.64-4.32 2.51 1.97 3.5 1.98 7.21-.13 8.75-2.16 1.57-5.79.31-8.53-2.78-1.32 1.02-2.61 2.06-3.88 3.14 2.56 3.17 3.19 6.9 1.33 8.76-1.91 1.91-5.77 1.2-8.99-1.51-1.14 1.2-2.26 2.44-3.34 3.7 3.12 2.74 4.39 6.4 2.82 8.57-1.61 2.22-5.64 2.09-9.29-.19-.94 1.36-1.85 2.75-2.73 4.16 3.63 2.22 5.54 5.71 4.3 8.13-1.27 2.49-5.39 2.96-9.42 1.17-.72 1.49-1.4 3.01-2.05 4.54 4.07 1.59 6.6 4.81 5.74 7.45-.88 2.7-5 3.8-9.34 2.56-.48 1.59-.92 3.2-1.32 4.83 4.38.89 7.51 3.72 7.07 6.5-.45 2.86-4.48 4.6-9.06 3.96-.22 1.65-.41 3.32-.55 5 4.58.12 8.23 2.46 8.23 5.33 0 2.94-3.84 5.33-8.57 5.34.04 1.69.11 3.37.23 5.04 4.64-.7 8.75 1.05 9.21 3.94.46 2.91-2.97 5.88-7.66 6.62l-.24.03c.3 1.68.65 3.34 1.03 4.99.05-.02.1-.04.15-.05 4.52-1.47 8.92-.38 9.83 2.42.91 2.8-2.01 6.27-6.53 7.74-.16.05-.32.09-.47.14.57 1.63 1.18 3.23 1.82 4.82.12-.06.23-.13.35-.19 4.23-2.16 8.75-1.78 10.09.85 1.34 2.63-1.01 6.51-5.24 8.66-.22.11-.43.21-.65.31.82 1.53 1.69 3.03 2.59 4.51.16-.13.32-.26.49-.38 3.84-2.79 8.36-3.12 10.1-.74 1.73 2.39.02 6.58-3.82 9.38-.25.18-.5.35-.76.51 1.06 1.39 2.16 2.75 3.29 4.08.18-.2.36-.4.55-.59 3.36-3.36 7.77-4.39 9.86-2.31 2.08 2.09 1.05 6.5-2.31 9.86-.27.26-.54.51-.81.75 1.28 1.22 2.6 2.4 3.94 3.55.17-.28.35-.55.55-.82 2.79-3.84 6.99-5.55 9.38-3.82 2.39 1.74 2.06 6.25-.73 10.1-.25.35-.52.67-.8.99 1.47 1.01 2.97 1.99 4.5 2.92.14-.35.3-.7.48-1.05 2.16-4.23 6.03-6.58 8.66-5.24 2.63 1.34 3.01 5.86.85 10.09-.22.43-.46.83-.71 1.22 1.62.77 3.27 1.5 4.95 2.18a14 14 0 01.33-1.23c1.47-4.52 4.93-7.44 7.74-6.53 2.8.91 3.89 5.31 2.42 9.83-.16.49-.34.95-.55 1.4 1.73.5 3.49.97 5.26 1.38.03-.44.07-.89.14-1.35.74-4.69 3.7-8.12 6.62-7.66 2.91.46 4.67 4.64 3.93 9.33-.08.52-.2 1.02-.33 1.51 1.79.22 3.6.39 5.42.51-.04-.45-.07-.9-.07-1.37 0-4.75 2.39-8.6 5.34-8.6 2.95 0 5.34 3.85 5.34 8.6 0 .53-.03 1.04-.09 1.54 1.82-.06 3.63-.18 5.43-.34-.11-.44-.21-.88-.29-1.34-.75-4.69 1.01-8.87 3.93-9.33 2.92-.46 5.88 2.97 6.62 7.66.08.52.13 1.02.15 1.52 1.79-.35 3.56-.75 5.31-1.2-.18-.41-.34-.82-.49-1.26-1.47-4.52-.39-8.92 2.42-9.83 2.81-.91 6.27 2.01 7.74 6.53.15.48.28.95.37 1.42 1.7-.63 3.37-1.31 5.02-2.03-.22-.35-.44-.71-.63-1.1-2.16-4.23-1.78-8.75.85-10.09 2.63-1.34 6.51 1.01 8.66 5.24.21.41.39.83.55 1.24 1.56-.89 3.1-1.81 4.6-2.77-.24-.29-.48-.58-.71-.89-2.79-3.84-3.12-8.36-.74-10.1 2.39-1.73 6.58-.02 9.38 3.82.24.33.45.66.65 1 1.38-1.11 2.74-2.25 4.06-3.43-.24-.21-.47-.43-.71-.66-3.36-3.36-4.39-7.77-2.31-9.86 2.09-2.08 6.5-1.05 9.86 2.31.25.25.47.5.69.75 1.18-1.3 2.32-2.63 3.43-3.99-.22-.14-.44-.29-.65-.44-3.84-2.79-5.55-6.99-3.82-9.38 1.74-2.39 6.26-2.06 10.1.74.23.16.44.33.65.51.95-1.45 1.86-2.93 2.74-4.43-.18-.08-.36-.16-.54-.25-4.23-2.15-6.58-6.03-5.24-8.66 1.34-2.63 5.86-3.01 10.09-.85l.54.3c.7-1.57 1.36-3.16 1.98-4.76-.12-.04-.24-.06-.36-.1-4.52-1.47-7.44-4.93-6.53-7.74.91-2.8 5.31-3.89 9.83-2.42.12.04.24.09.36.13.44-1.64.84-3.29 1.19-4.97-.04-.01-.08-.01-.12-.01-4.69-.74-8.12-3.71-7.66-6.62.46-2.92 4.64-4.67 9.33-3.93.04.01.08.02.12.02.17-1.67.3-3.35.39-5.04-4.67-.09-8.45-2.45-8.45-5.37zM52.07 40.03l19.28 33.4c-3.94 4.25-6.96 9.37-8.7 15.05H24.08c2.94-19.54 13.25-36.66 27.99-48.45zm3.46 59.94c0 2.08-1.69 3.77-3.77 3.77s-3.77-1.69-3.77-3.77 1.69-3.77 3.77-3.77 3.77 1.69 3.77 3.77zm-3.45 59.94c-14.75-11.8-25.06-28.91-27.99-48.44h38.57c1.75 5.68 4.76 10.8 8.7 15.05l-19.28 33.39zm47.87 16.79c-9.88 0-19.31-1.89-27.98-5.28l19.29-33.4c2.8.64 5.7.98 8.69.98 2.99 0 5.89-.35 8.69-.98l19.29 33.41a76.861 76.861 0 01-27.98 5.27zM77.74 61.5a3.786 3.786 0 01-5.16-1.38 3.774 3.774 0 011.38-5.15c1.8-1.04 4.11-.42 5.15 1.38 1.06 1.8.44 4.11-1.37 5.15zm1.39 82.09a3.766 3.766 0 01-5.15 1.38 3.766 3.766 0 01-1.38-5.15 3.774 3.774 0 015.15-1.38 3.774 3.774 0 011.38 5.15zm2.05-43.62c0-10.37 8.41-18.78 18.78-18.78 10.37 0 18.78 8.41 18.78 18.78 0 10.37-8.41 18.78-18.78 18.78-10.38-.01-18.78-8.41-18.78-18.78zm46.14-39.85a3.774 3.774 0 01-5.15 1.38c-1.81-1.04-2.42-3.35-1.38-5.16a3.774 3.774 0 015.15-1.38 3.786 3.786 0 011.38 5.16zm-1.38 84.85c-1.8 1.04-4.11.42-5.15-1.38a3.772 3.772 0 011.38-5.15 3.786 3.786 0 015.16 1.38c1.03 1.8.41 4.11-1.39 5.15zm-17.3-83.05c-2.79-.64-5.7-.98-8.69-.98-2.99 0-5.89.35-8.69.98l-19.29-33.4c8.67-3.4 18.1-5.29 27.98-5.29s19.31 1.89 27.98 5.28l-19.29 33.41zm39.19 97.99l-19.28-33.4c3.94-4.25 6.96-9.37 8.71-15.05h38.57c-2.94 19.54-13.25 36.65-28 48.45zm-3.46-59.94c0-2.08 1.69-3.77 3.77-3.77s3.77 1.69 3.77 3.77-1.69 3.77-3.77 3.77-3.77-1.69-3.77-3.77zm-7.11-11.5a38.953 38.953 0 00-8.71-15.05l19.28-33.4c14.75 11.8 25.06 28.91 27.99 48.44h-38.56z" fill="#404041"/></svg>