<svg xmlns="http://www.w3.org/2000/svg" width="117.6" height="117.6" viewBox="0 0 117.6 117.6" overflow="visible"><path d="M108.46 53.33c.6.26 1.3.51 2.05.76.75.25 1.55.5 2.36.75.81.25 1.63.49 2.41.74.78.25 1.54.5 2.21.76l.03.54.03.54.03.54c.01.18.01.36.02.54 0 .18.01.36.01.54v1.62c-.67.26-1.4.51-2.18.76-.77.25-1.58.5-2.38.74-.8.25-1.58.49-2.32.74-.74.25-1.42.5-2.01.76-.03.33-.05.66-.09.99-.03.33-.07.65-.11.98-.04.33-.08.65-.13.97l-.15.96c.51.42 1.12.87 1.78 1.32.66.45 1.36.92 2.08 1.39.72.47 1.44.94 2.14 1.4.69.46 1.35.92 1.94 1.35-.08.34-.16.69-.25 1.03-.09.34-.17.68-.27 1.02-.09.34-.19.68-.28 1.01l-.3 1.01c-.72.06-1.5.09-2.33.11-.82.02-1.67.02-2.51.03-.84.01-1.68.02-2.46.05-.78.03-1.52.08-2.16.16-.12.31-.24.61-.36.91-.12.3-.25.6-.38.9-.13.3-.26.6-.4.9-.13.3-.27.59-.41.89.38.55.84 1.15 1.34 1.77.51.62 1.06 1.27 1.62 1.92.56.65 1.13 1.31 1.67 1.95a40.4 40.4 0 011.49 1.85c-.17.31-.35.61-.52.91l-.54.9c-.18.3-.37.6-.56.9-.19.3-.38.59-.57.88-.71-.15-1.48-.35-2.28-.57-.8-.22-1.62-.45-2.44-.69-.82-.23-1.63-.46-2.4-.65s-1.5-.36-2.14-.46c-.2.26-.4.52-.6.77-.2.25-.41.51-.62.76-.21.25-.42.5-.63.74-.21.25-.43.49-.65.73.21.63.49 1.33.81 2.07.32.74.67 1.51 1.04 2.3.36.78.73 1.57 1.08 2.34.34.77.67 1.51.93 2.2-.25.24-.5.48-.76.72s-.51.48-.78.71c-.26.24-.52.47-.79.7-.27.23-.53.46-.8.69-.65-.34-1.34-.75-2.05-1.18-.71-.43-1.45-.9-2.18-1.35-.73-.45-1.45-.9-2.14-1.31s-1.35-.77-1.95-1.05c-.26.19-.53.38-.8.57-.27.19-.54.37-.81.55-.27.18-.54.36-.82.54-.28.18-.55.35-.83.52.03.66.1 1.41.2 2.21s.23 1.64.36 2.49c.13.85.27 1.71.39 2.54.12.83.22 1.63.29 2.37-.31.16-.63.32-.94.48-.32.16-.63.31-.95.46l-.96.45c-.32.15-.64.29-.97.43-.53-.51-1.08-1.1-1.65-1.72-.57-.62-1.15-1.27-1.73-1.92-.58-.64-1.15-1.28-1.71-1.86-.56-.58-1.09-1.12-1.6-1.56-.31.11-.62.21-.92.31-.31.1-.62.2-.94.3-.31.1-.63.19-.94.28-.32.09-.63.18-.95.26-.16.64-.3 1.38-.42 2.17-.13.79-.24 1.63-.35 2.48-.11.85-.22 1.71-.34 2.54-.12.83-.25 1.63-.39 2.35-.35.07-.69.13-1.04.19-.35.06-.7.12-1.05.17-.35.05-.7.11-1.06.15-.35.05-.71.09-1.06.13-.36-.64-.73-1.37-1.11-2.12-.37-.76-.75-1.55-1.13-2.33-.38-.78-.76-1.55-1.13-2.27-.37-.72-.74-1.38-1.1-1.95-.16.01-.33.02-.5.02-.17.01-.33.01-.5.02-.17.01-.33.01-.5.01-.17 0-.33.01-.5.01h-.5c-.17 0-.33 0-.5-.01-.17 0-.33-.01-.5-.01-.17-.01-.33-.01-.5-.02-.34.57-.68 1.24-1.03 1.96s-.69 1.5-1.04 2.29c-.35.79-.7 1.58-1.04 2.34-.35.76-.69 1.49-1.03 2.14l-1.07-.12c-.36-.04-.71-.09-1.06-.14-.35-.05-.71-.1-1.06-.16-.35-.06-.71-.11-1.06-.18-.17-.72-.33-1.52-.48-2.35-.15-.83-.3-1.69-.44-2.55-.15-.85-.29-1.7-.45-2.49-.16-.79-.33-1.53-.51-2.17-.32-.08-.65-.17-.97-.25l-.96-.27c-.32-.09-.64-.19-.95-.29-.32-.1-.63-.2-.94-.3-.49.45-1.01.99-1.54 1.58-.54.59-1.09 1.24-1.65 1.89-.56.65-1.12 1.31-1.67 1.94-.55.63-1.09 1.23-1.6 1.75-.33-.14-.67-.28-1-.42-.33-.14-.66-.29-.99-.44-.33-.15-.65-.3-.98-.45-.33-.15-.65-.31-.97-.47.04-.74.11-1.55.2-2.39.09-.84.19-1.71.3-2.56.1-.86.2-1.71.27-2.51.07-.8.12-1.56.12-2.22-.29-.17-.57-.34-.86-.52-.29-.17-.57-.35-.85-.53-.28-.18-.56-.36-.84-.55-.28-.19-.56-.37-.83-.56-.59.29-1.25.66-1.93 1.07-.68.41-1.4.87-2.12 1.33-.72.46-1.45.94-2.16 1.38-.71.45-1.4.86-2.04 1.22-.28-.22-.56-.45-.84-.68-.28-.23-.56-.46-.83-.7-.27-.24-.55-.47-.82-.71-.27-.24-.54-.48-.8-.73.24-.7.54-1.45.86-2.22.32-.77.67-1.57 1-2.37.34-.79.67-1.58.96-2.32.29-.75.55-1.46.74-2.09-.23-.24-.46-.49-.69-.73-.23-.25-.45-.5-.67-.75a51.508 51.508 0 01-1.3-1.53c-.66.11-1.39.28-2.17.48-.78.2-1.59.43-2.42.67-.83.24-1.66.48-2.47.71-.81.22-1.59.43-2.31.58-.21-.29-.42-.59-.62-.89-.2-.3-.41-.6-.61-.9-.2-.3-.4-.61-.59-.91l-.57-.93c.43-.59.93-1.22 1.46-1.87.53-.65 1.08-1.31 1.63-1.97.55-.66 1.09-1.32 1.58-1.95.49-.63.94-1.23 1.3-1.79-.16-.3-.31-.6-.46-.9-.15-.3-.3-.6-.44-.9-.14-.3-.28-.61-.42-.91-.14-.31-.27-.61-.4-.92-.66-.08-1.42-.12-2.22-.15a68.4 68.4 0 00-2.52-.04c-.86-.01-1.73-.01-2.57-.02-.84-.01-1.65-.04-2.38-.1a6 6 0 01-.38-.96c-.11-.34-.23-.68-.33-1.03-.11-.34-.21-.69-.31-1.04-.1-.35-.2-.7-.29-1.05.58-.44 1.24-.9 1.93-1.37.69-.47 1.42-.94 2.13-1.42.72-.47 1.42-.95 2.08-1.41.65-.46 1.26-.91 1.76-1.34-.07-.32-.13-.65-.19-.98-.06-.33-.12-.65-.17-.98l-.15-.99c-.05-.33-.09-.67-.13-1-.61-.26-1.32-.52-2.09-.77-.76-.25-1.58-.5-2.41-.75-.83-.25-1.66-.5-2.47-.75-.8-.25-1.57-.51-2.26-.77l-.03-.55c-.01-.18-.02-.36-.02-.54-.01-.18-.01-.36-.02-.55-.01-.18-.01-.36-.02-.55v-.55-.55c0-.18.01-.36.01-.55 0-.18.01-.36.01-.55.68-.26 1.44-.51 2.24-.77.79-.25 1.62-.5 2.44-.75.82-.25 1.63-.5 2.39-.75.76-.25 1.46-.51 2.06-.77.03-.33.07-.66.1-.99l.12-.99c.04-.33.09-.66.14-.98.05-.33.1-.65.16-.98-.52-.43-1.13-.88-1.8-1.34-.67-.46-1.39-.93-2.11-1.4-.73-.47-1.47-.95-2.17-1.41-.7-.47-1.37-.93-1.97-1.37.08-.35.17-.69.26-1.04.09-.34.18-.69.28-1.03l.3-1.02c.1-.34.21-.68.32-1.02.73-.05 1.54-.08 2.37-.1.84-.01 1.71-.02 2.56-.02.86-.01 1.71-.01 2.51-.04.8-.03 1.55-.07 2.21-.15.12-.31.25-.61.37-.92s.26-.61.39-.91c.13-.3.27-.6.41-.9.14-.3.28-.59.43-.89-.38-.55-.84-1.15-1.35-1.77-.51-.62-1.07-1.27-1.63-1.93-.57-.66-1.14-1.31-1.68-1.96-.54-.64-1.06-1.27-1.5-1.86.18-.31.36-.61.54-.92.18-.3.37-.6.56-.9.19-.3.38-.59.57-.89.19-.29.39-.59.59-.87.72.15 1.5.36 2.31.58.81.22 1.65.46 2.47.7.83.24 1.65.47 2.43.67.78.2 1.51.37 2.17.48.2-.26.41-.51.62-.77l.63-.75c.21-.25.43-.5.65-.74.22-.24.44-.49.66-.73-.21-.63-.49-1.33-.8-2.07-.32-.74-.67-1.51-1.03-2.29s-.73-1.57-1.07-2.33c-.34-.76-.66-1.5-.93-2.19l.78-.72c.26-.24.52-.47.79-.7.27-.23.53-.46.8-.69.27-.23.54-.45.82-.67.65.35 1.34.76 2.06 1.2.72.44 1.45.9 2.18 1.36.73.46 1.46.91 2.15 1.31.69.41 1.35.77 1.96 1.06.27-.19.53-.37.8-.55.27-.18.54-.36.82-.54.27-.18.55-.35.83-.52.28-.17.56-.34.84-.5-.03-.66-.1-1.4-.2-2.19s-.22-1.63-.35-2.47c-.13-.84-.26-1.7-.38-2.52-.12-.82-.21-1.61-.28-2.34.31-.16.63-.31.94-.46.32-.15.63-.3.95-.45.32-.15.64-.29.96-.43.32-.14.65-.28.97-.41.52.52 1.08 1.1 1.64 1.72.57.62 1.15 1.27 1.72 1.91.58.64 1.15 1.27 1.7 1.86.55.58 1.09 1.12 1.59 1.56.31-.11.62-.21.93-.3.31-.1.62-.19.93-.28.31-.09.63-.18.94-.26.32-.09.63-.17.95-.24.16-.63.3-1.36.42-2.14.13-.78.24-1.6.35-2.44.11-.84.22-1.68.34-2.5.12-.81.25-1.59.39-2.3l1.04-.18c.35-.06.69-.11 1.04-.16.35-.05.7-.1 1.05-.14l1.06-.12c.36.64.73 1.35 1.1 2.1.37.75.75 1.53 1.12 2.3.37.77.75 1.53 1.12 2.24.37.71.74 1.37 1.09 1.92.16 0 .33-.01.49-.01.16 0 .33-.01.49-.01.17 0 .33 0 .5-.01h.5c.17 0 .33 0 .5.01.17 0 .33.01.5.01.17 0 .33.01.5.02.17.01.33.01.49.02.34-.56.68-1.21 1.02-1.91.34-.7.69-1.46 1.03-2.23.34-.77.69-1.54 1.03-2.28.34-.74.68-1.45 1.01-2.08.35.04.71.08 1.06.13l1.05.15c.35.05.7.11 1.04.17.35.06.69.12 1.04.19.17.71.33 1.48.48 2.3.15.81.29 1.66.44 2.49.14.84.29 1.66.45 2.44.16.78.32 1.5.51 2.14.32.08.64.17.95.25.32.09.63.18.95.28.31.09.63.19.94.29.31.1.62.21.93.31.48-.44.99-.96 1.52-1.54.53-.57 1.07-1.2 1.62-1.83.55-.63 1.09-1.27 1.63-1.88.54-.61 1.06-1.19 1.56-1.69.33.14.66.28.98.42.33.14.65.29.97.44.32.15.64.3.96.46.32.16.64.31.95.47-.03.72-.1 1.5-.18 2.32-.08.82-.18 1.66-.28 2.5-.09.84-.19 1.67-.25 2.45-.07.79-.11 1.52-.11 2.18.29.17.57.34.85.51.28.17.56.35.84.53.28.18.55.36.83.54.27.18.55.37.82.56.58-.28 1.22-.63 1.89-1.03.67-.4 1.37-.84 2.07-1.28.7-.45 1.41-.9 2.1-1.33.69-.43 1.36-.83 1.98-1.17.28.22.55.45.83.68.27.23.55.46.82.69.27.23.54.46.8.7.27.24.53.48.79.72-.23.68-.52 1.41-.83 2.16-.31.75-.64 1.53-.97 2.31-.33.77-.64 1.54-.93 2.27-.28.73-.53 1.42-.71 2.05.23.24.45.48.67.72.22.24.44.49.66.74.22.25.43.5.65.75.21.25.42.51.63.76.64-.1 1.36-.26 2.11-.46.76-.19 1.55-.42 2.36-.64.8-.23 1.61-.46 2.4-.68.78-.21 1.54-.41 2.24-.55.21.29.41.58.61.87.2.29.4.59.6.88s.39.59.58.89c.19.3.38.6.56.91-.41.58-.89 1.2-1.4 1.83-.51.63-1.04 1.28-1.57 1.93-.53.64-1.05 1.29-1.52 1.9-.48.62-.91 1.21-1.26 1.75.15.29.3.58.45.88.15.29.29.59.44.89l.42.9c.14.3.27.6.4.91.65.08 1.38.13 2.16.16.78.03 1.61.04 2.46.05.84.01 1.69.01 2.51.03.82.02 1.61.05 2.32.11.12.33.23.67.35 1 .11.34.22.67.33 1.01.11.34.21.68.32 1.02.1.34.2.68.3 1.03-.56.43-1.2.88-1.87 1.34-.67.46-1.37.92-2.06 1.39-.69.46-1.38.93-2.01 1.38-.63.45-1.22.9-1.71 1.32.07.32.13.64.19.97l.18.97c.06.32.11.65.16.98.07.34.11.66.15.99zM73.89 19.51c-1.66.8-3.38 1.98-5.06 3.46-1.68 1.48-3.32 3.27-4.82 5.29a39.01 39.01 0 00-4 6.71 36.033 36.033 0 00-2.59 7.73l.36-.03c.12-.01.24-.02.36-.02.12-.01.24-.01.37-.01h.37c.47 0 .94.02 1.4.07.46.04.92.11 1.37.19.45.08.9.19 1.33.31.44.12.87.26 1.29.42 1.61-1.57 3.51-3.14 5.57-4.64a63.71 63.71 0 016.51-4.17c2.24-1.25 4.51-2.34 6.69-3.18 2.18-.84 4.26-1.42 6.12-1.67-1.06-1.13-2.19-2.2-3.36-3.21a43.98 43.98 0 00-3.69-2.83c-1.28-.88-2.61-1.68-3.99-2.42a38.11 38.11 0 00-4.23-2zm-43.88 8.08a41.584 41.584 0 00-5.94 7c-.86 1.28-1.65 2.61-2.36 3.98-.72 1.38-1.36 2.8-1.92 4.26.85 1.7 2.07 3.47 3.6 5.2 1.53 1.73 3.37 3.43 5.44 4.99 2.07 1.56 4.37 2.99 6.84 4.18 2.47 1.19 5.09 2.15 7.81 2.77-.01-.12-.03-.25-.04-.37l-.03-.37c-.01-.12-.02-.25-.02-.37-.01-.12-.01-.25-.01-.37-.01-.48 0-.95.04-1.41a15.17 15.17 0 01.44-2.72c.11-.44.24-.87.39-1.29-1.6-1.66-3.22-3.61-4.76-5.72a70.481 70.481 0 01-4.33-6.67c-1.31-2.3-2.45-4.62-3.34-6.84-.9-2.23-1.53-4.35-1.81-6.25zm14.34 70.3c1.69-.83 3.43-2.04 5.13-3.56 1.7-1.52 3.35-3.34 4.87-5.4 1.51-2.06 2.89-4.35 4.03-6.81 1.14-2.46 2.04-5.08 2.6-7.8l-.36.03c-.12.01-.24.02-.37.02-.12.01-.24.01-.37.01-.12 0-.25.01-.37.01-.47 0-.94-.02-1.41-.06-.46-.04-.92-.1-1.38-.19-.45-.08-.9-.18-1.34-.3-.44-.12-.87-.26-1.3-.41-1.63 1.58-3.54 3.18-5.61 4.7a69.172 69.172 0 01-6.58 4.26c-2.27 1.28-4.58 2.41-6.8 3.27-2.22.87-4.34 1.47-6.25 1.74 1.08 1.14 2.22 2.22 3.41 3.23 1.19 1.01 2.44 1.97 3.74 2.85 1.3.88 2.65 1.69 4.04 2.43 1.4.73 2.84 1.4 4.32 1.98zm44.01-8.53a41.355 41.355 0 005.85-7.05 42.65 42.65 0 002.31-3.99c.7-1.38 1.32-2.8 1.86-4.26-.84-1.69-2.06-3.45-3.58-5.17a37.015 37.015 0 00-5.39-4.96 40.258 40.258 0 00-6.78-4.15c-2.45-1.18-5.05-2.13-7.75-2.75.01.12.03.24.04.36l.03.36c.01.12.02.24.02.37 0 .12.01.25.01.37.01.48 0 .95-.03 1.41-.03.46-.08.92-.16 1.38-.07.45-.16.9-.27 1.33-.11.44-.24.87-.38 1.29 1.59 1.66 3.21 3.6 4.75 5.71 1.54 2.1 3.01 4.37 4.32 6.66 1.31 2.29 2.45 4.61 3.34 6.84.88 2.22 1.52 4.35 1.81 6.25zM20.73 75.25c1.8.63 3.91 1.03 6.2 1.19 2.29.16 4.77.07 7.32-.28 2.54-.35 5.15-.96 7.71-1.86 2.55-.9 5.05-2.08 7.38-3.57-.46-.37-.89-.77-1.3-1.19-.41-.42-.8-.86-1.16-1.32-.36-.46-.7-.95-1.02-1.45-.31-.5-.6-1.02-.86-1.56-2.29-.06-4.79-.32-7.35-.74-2.57-.42-5.19-1.01-7.73-1.73-2.54-.73-4.98-1.59-7.18-2.57-2.2-.98-4.15-2.06-5.7-3.23 0 .13-.01.26-.01.38 0 .13 0 .26-.01.38v.76c.02 1.49.12 2.96.3 4.41a42.945 42.945 0 001.87 8.41c.45 1.37.96 2.69 1.54 3.97zm55.83 22.06c.58-1.79.94-3.89 1.06-6.18.11-2.29-.02-4.77-.41-7.32-.39-2.55-1.05-5.17-1.99-7.74-.94-2.57-2.15-5.09-3.67-7.44-.36.45-.75.87-1.16 1.28-.41.4-.84.78-1.29 1.14-.45.36-.92.69-1.41.99-.49.31-1 .58-1.52.84-.02 2.29-.22 4.8-.59 7.36-.37 2.57-.9 5.19-1.57 7.73-.67 2.53-1.48 4.97-2.41 7.17-.93 2.19-1.97 4.13-3.1 5.67.13 0 .25.01.38.01s.25.01.38.01.25.01.38.01h.38c1.48-.01 2.94-.09 4.37-.25 1.43-.16 2.84-.39 4.23-.69 1.38-.3 2.74-.67 4.06-1.1 1.32-.43 2.62-.93 3.88-1.49zM41.89 19.79c-.59 1.77-.96 3.85-1.08 6.12-.12 2.27 0 4.74.39 7.28a41.11 41.11 0 001.97 7.72c.93 2.57 2.15 5.09 3.67 7.45.36-.45.75-.88 1.16-1.28.41-.4.84-.78 1.29-1.14a15.547 15.547 0 012.95-1.8c.02-2.28.23-4.77.6-7.32.37-2.55.9-5.15 1.58-7.66.67-2.5 1.48-4.91 2.4-7.07.92-2.16 1.96-4.06 3.08-5.57-.13 0-.25-.01-.38-.01s-.25-.01-.38-.01-.25-.01-.38-.01-.25 0-.38-.01c-1.47-.01-2.92.06-4.34.2-1.43.14-2.83.35-4.21.64-1.38.28-2.73.63-4.06 1.05-1.32.4-2.62.88-3.88 1.42zm59.07 40.23c0-.13 0-.25.01-.38 0-.13 0-.25.01-.38v-.38-.38a42.502 42.502 0 00-1.07-8.59c-.32-1.38-.7-2.74-1.15-4.08-.45-1.33-.96-2.63-1.53-3.9-1.77-.62-3.83-1.03-6.09-1.2-2.25-.17-4.69-.09-7.19.24-2.51.33-5.08.93-7.6 1.81-2.52.88-5 2.04-7.3 3.51a16.087 16.087 0 012.44 2.51c.36.46.7.94 1.01 1.44.31.5.6 1.02.86 1.55 2.27.06 4.75.32 7.29.74s5.14 1 7.64 1.73c2.5.72 4.92 1.58 7.08 2.55 2.15.97 4.07 2.05 5.59 3.21zM64.18 63.4c.66-.68 1.15-1.46 1.47-2.3.32-.84.47-1.72.45-2.61a6.99 6.99 0 00-.56-2.61c-.35-.83-.87-1.62-1.56-2.29a7.158 7.158 0 00-2.31-1.53c-.84-.34-1.72-.51-2.61-.51-.88 0-1.76.17-2.59.51-.82.34-1.59.85-2.25 1.52a6.82 6.82 0 00-1.48 2.29 6.88 6.88 0 00-.46 2.61c.02.89.2 1.78.56 2.62.35.84.88 1.62 1.57 2.3.69.68 1.48 1.18 2.31 1.52.84.34 1.73.51 2.61.51.88 0 1.76-.17 2.59-.51.83-.33 1.6-.84 2.26-1.52z" fill="#949292"/></svg>