<svg xmlns="http://www.w3.org/2000/svg" width="123.04" height="123.04" viewBox="0 0 123.04 123.04" overflow="visible"><path d="M122.98 63.93c.03-.8.06-1.6.06-2.41s-.03-1.61-.06-2.41c-2.88-1.43-7.68-2.66-11.11-4.01-.3-2.38-.77-4.72-1.39-6.98 2.65-2.58 6.63-5.55 8.74-7.95-.55-1.48-1.17-2.94-1.82-4.37-3.2-.21-8.11.5-11.8.56a49.304 49.304 0 00-3.97-5.92c1.46-3.39 3.99-7.66 5.02-10.69a61.89 61.89 0 00-3.34-3.34c-3.03 1.03-7.3 3.56-10.7 5.02a51.8 51.8 0 00-5.92-3.97c.06-3.69.77-8.6.56-11.8-1.43-.66-2.88-1.27-4.37-1.83-2.4 2.12-5.37 6.09-7.95 8.74-2.27-.62-4.6-1.08-6.98-1.39C66.6 7.75 65.37 2.94 63.94.07 63.13.03 62.33 0 61.52 0s-1.61.03-2.41.06c-1.43 2.88-2.66 7.68-4.01 11.11-2.38.3-4.72.77-6.98 1.39-2.58-2.65-5.55-6.63-7.95-8.74-1.48.55-2.94 1.17-4.37 1.83-.21 3.2.5 8.11.56 11.8a50.521 50.521 0 00-5.92 3.97c-3.39-1.46-7.66-3.99-10.69-5.02a61.89 61.89 0 00-3.34 3.34c1.03 3.03 3.56 7.3 5.02 10.7a51.293 51.293 0 00-3.96 5.92c-3.69-.06-8.6-.77-11.8-.56-.66 1.43-1.27 2.88-1.82 4.37 2.11 2.4 6.09 5.37 8.74 7.95-.62 2.27-1.08 4.6-1.39 6.98-3.43 1.35-8.24 2.58-11.11 4.01-.06.8-.09 1.6-.09 2.41s.03 1.61.06 2.41c2.88 1.43 7.68 2.66 11.11 4.02.3 2.38.77 4.71 1.39 6.98-2.65 2.58-6.63 5.55-8.74 7.95.55 1.49 1.17 2.94 1.83 4.37 3.2.21 8.11-.5 11.8-.56 1.18 2.07 2.51 4.05 3.97 5.92-1.46 3.39-3.99 7.66-5.02 10.69a61.89 61.89 0 003.34 3.34c3.03-1.03 7.3-3.56 10.7-5.02 1.87 1.45 3.85 2.78 5.92 3.96-.06 3.69-.77 8.6-.56 11.8 1.43.66 2.88 1.27 4.37 1.83 2.4-2.12 5.37-6.09 7.95-8.74 2.27.62 4.6 1.08 6.98 1.39 1.35 3.43 2.58 8.24 4.01 11.11.8.03 1.6.06 2.41.06s1.61-.03 2.41-.06c1.43-2.88 2.66-7.68 4.01-11.11 2.38-.3 4.72-.77 6.98-1.39 2.58 2.65 5.55 6.63 7.95 8.74 1.48-.55 2.94-1.17 4.37-1.83.21-3.2-.5-8.11-.56-11.8 2.07-1.19 4.05-2.51 5.92-3.97 3.39 1.46 7.66 3.99 10.69 5.02a61.89 61.89 0 003.34-3.34c-1.03-3.03-3.56-7.3-5.02-10.7 1.45-1.88 2.78-3.85 3.96-5.92 3.69.06 8.6.77 11.8.56.66-1.43 1.27-2.88 1.83-4.37-2.12-2.4-6.09-5.37-8.74-7.95.62-2.27 1.08-4.6 1.39-6.98 3.44-1.33 8.25-2.56 11.13-4zM96.92 43.49L76.3 55.39c-.54-1.3-1.26-2.51-2.11-3.62l20.63-11.91c.76 1.17 1.47 2.38 2.1 3.63zm-30.56-21.4c10.96 1.33 20.54 7.12 26.88 15.5l-20.96 12.1a16.142 16.142 0 00-5.91-3.43V22.09zm-6.94-.25c.7-.04 1.4-.06 2.1-.06.7 0 1.39.02 2.08.05v23.83c-.68-.09-1.38-.15-2.08-.15-.71 0-1.41.06-2.1.15V21.84zm-2.76.25v24.18c-2.22.71-4.23 1.9-5.91 3.44l-20.96-12.1c6.33-8.39 15.91-14.18 26.87-15.52zM28.2 39.88l20.63 11.91a15.7 15.7 0 00-2.1 3.62L26.11 43.5c.63-1.25 1.33-2.46 2.09-3.62zm-6.41 21.64c0-5.5 1.12-10.75 3.14-15.51l20.96 12.1c-.24 1.1-.37 2.24-.37 3.41 0 1.18.14 2.32.38 3.43l-20.96 12.1a39.567 39.567 0 01-3.15-15.53zm4.33 18.03l20.62-11.91c.54 1.31 1.26 2.52 2.11 3.62L28.21 83.18c-.76-1.17-1.46-2.38-2.09-3.63zm30.55 21.4c-10.96-1.33-20.54-7.12-26.87-15.5l20.96-12.1a16.06 16.06 0 005.91 3.43v24.17zm6.95.25c-.7.04-1.4.06-2.1.06-.7 0-1.39-.02-2.08-.05V77.37c.68.09 1.38.15 2.08.15.71 0 1.41-.06 2.1-.15v23.83zm-9.39-35.47c-2.33-4.03-.95-9.18 3.08-11.5 4.03-2.33 9.18-.95 11.5 3.08 2.33 4.03.94 9.18-3.08 11.5-4.03 2.32-9.18.95-11.5-3.08zm12.15 35.22V76.77c2.22-.71 4.22-1.9 5.91-3.44l20.96 12.1c-6.33 8.39-15.91 14.18-26.87 15.52zm28.45-17.79L74.2 71.25c.85-1.11 1.56-2.31 2.1-3.62l20.62 11.91c-.63 1.24-1.33 2.45-2.09 3.62zm3.28-6.13l-20.96-12.1c.24-1.1.37-2.24.37-3.41 0-1.18-.14-2.32-.38-3.43l20.96-12.1a39.567 39.567 0 013.15 15.53c0 5.5-1.12 10.74-3.14 15.51z" fill="#462027"/></svg>