<svg xmlns="http://www.w3.org/2000/svg" width="199.91" height="199.93" viewBox="0 0 199.91 199.93" overflow="visible"><style>.st0{fill:#404041}</style><path class="st0" d="M191.45 99.97c0-2.92 3.77-5.29 8.46-5.33-.09-1.68-.22-3.35-.39-5.01-4.53.59-8.5-1.14-8.94-3.98-.45-2.83 2.79-5.71 7.29-6.55-.35-1.64-.73-3.26-1.16-4.87-4.3 1.19-8.36.09-9.23-2.6-.87-2.68 1.77-5.96 5.95-7.53-.6-1.55-1.23-3.09-1.9-4.61-3.99 1.73-8.05 1.25-9.31-1.22-1.26-2.47.74-6.04 4.5-8.25-.83-1.44-1.7-2.85-2.6-4.24-3.62 2.22-7.58 2.33-9.18.13-1.6-2.2-.26-5.95 2.98-8.71-1.04-1.29-2.12-2.56-3.22-3.8-3.2 2.64-6.99 3.32-8.88 1.43-1.9-1.9-1.21-5.72 1.46-8.93-1.23-1.12-2.49-2.2-3.77-3.26-2.73 3.02-6.31 4.22-8.44 2.67-2.15-1.56-2.09-5.37-.03-8.92-1.39-.91-2.8-1.8-4.23-2.64-2.22 3.33-5.52 5.03-7.84 3.85-2.34-1.19-2.89-4.91-1.46-8.7-1.51-.69-3.04-1.34-4.59-1.96-1.68 3.59-4.65 5.73-7.11 4.94-2.48-.81-3.61-4.35-2.82-8.28-1.6-.45-3.22-.85-4.85-1.22-1.11 3.76-3.69 6.31-6.22 5.91-2.56-.41-4.23-3.69-4.09-7.67-1.65-.19-3.31-.35-4.98-.46-.52 3.86-2.66 6.75-5.21 6.75-2.59 0-4.75-2.97-5.24-6.92-1.68.06-3.34.16-5 .3.09 3.9-1.57 7.09-4.09 7.49-2.57.41-5.18-2.21-6.26-6.06-1.64.31-3.27.67-4.89 1.07.72 3.86-.42 7.3-2.86 8.09-2.49.81-5.49-1.41-7.17-5.07-1.58.58-3.13 1.18-4.66 1.82 1.35 3.73.77 7.35-1.53 8.52-2.35 1.2-5.7-.56-7.92-3.97-1.46.8-2.9 1.64-4.32 2.51 1.97 3.5 1.98 7.21-.13 8.75-2.16 1.56-5.79.31-8.53-2.78-1.32 1.02-2.61 2.06-3.88 3.14 2.56 3.17 3.19 6.9 1.33 8.76-1.91 1.91-5.77 1.2-8.99-1.51-1.14 1.2-2.26 2.44-3.34 3.7 3.12 2.74 4.39 6.4 2.82 8.57-1.61 2.22-5.64 2.09-9.29-.19-.94 1.36-1.85 2.75-2.73 4.16 3.63 2.22 5.54 5.71 4.3 8.13-1.27 2.49-5.39 2.96-9.42 1.17-.72 1.49-1.4 3.01-2.05 4.54 4.07 1.59 6.6 4.81 5.74 7.45-.88 2.7-5 3.8-9.34 2.56-.48 1.59-.92 3.2-1.32 4.83 4.38.89 7.51 3.72 7.07 6.51-.45 2.86-4.48 4.6-9.06 3.96-.22 1.65-.41 3.32-.55 5 4.58.12 8.23 2.46 8.23 5.33 0 2.94-3.84 5.33-8.57 5.34.04 1.69.11 3.37.23 5.04 4.64-.7 8.76 1.05 9.21 3.94.46 2.91-2.97 5.88-7.66 6.62l-.24.03c.3 1.68.64 3.34 1.03 4.99.05-.02.1-.04.15-.05 4.52-1.47 8.92-.38 9.83 2.42.91 2.8-2.01 6.27-6.53 7.73-.16.05-.32.09-.47.14.57 1.63 1.18 3.23 1.82 4.82.12-.06.23-.13.35-.19 4.23-2.16 8.75-1.77 10.09.85 1.34 2.63-1.01 6.51-5.24 8.66-.22.11-.43.21-.65.31.82 1.53 1.69 3.03 2.59 4.51.16-.13.32-.26.49-.38 3.84-2.79 8.36-3.12 10.1-.74 1.73 2.39.02 6.58-3.82 9.38-.25.18-.5.35-.76.51 1.06 1.39 2.16 2.75 3.29 4.08.18-.2.36-.4.55-.59 3.36-3.36 7.77-4.39 9.86-2.31 2.08 2.09 1.05 6.5-2.31 9.86-.27.26-.54.51-.81.75 1.28 1.22 2.6 2.4 3.94 3.55.17-.27.35-.55.55-.82 2.79-3.84 6.99-5.55 9.38-3.82 2.39 1.74 2.06 6.26-.73 10.1-.25.35-.52.67-.8.99 1.47 1.01 2.97 1.99 4.5 2.92.14-.35.3-.7.48-1.05 2.16-4.23 6.03-6.58 8.66-5.24 2.63 1.34 3.01 5.86.85 10.09-.22.43-.46.83-.71 1.22 1.62.77 3.27 1.5 4.95 2.18a14 14 0 01.33-1.23c1.47-4.52 4.93-7.44 7.74-6.53 2.81.91 3.89 5.31 2.42 9.83-.16.49-.34.95-.55 1.4 1.73.5 3.49.97 5.26 1.38.03-.44.07-.89.14-1.35.74-4.69 3.7-8.12 6.62-7.66 2.91.46 4.67 4.64 3.93 9.33-.08.52-.2 1.02-.33 1.51 1.79.22 3.6.39 5.42.51-.04-.45-.07-.9-.07-1.37 0-4.75 2.39-8.6 5.34-8.6 2.95 0 5.34 3.85 5.34 8.6 0 .53-.03 1.04-.09 1.54 1.82-.06 3.63-.18 5.43-.34-.11-.44-.21-.88-.29-1.34-.75-4.69 1.01-8.87 3.93-9.33 2.91-.46 5.88 2.97 6.62 7.66.08.52.13 1.02.15 1.52 1.79-.35 3.56-.75 5.31-1.2-.18-.4-.34-.82-.48-1.26-1.47-4.52-.39-8.92 2.42-9.83 2.81-.91 6.27 2.01 7.74 6.53.15.48.28.95.37 1.42 1.7-.63 3.37-1.31 5.02-2.03-.22-.35-.44-.71-.63-1.1-2.16-4.23-1.77-8.75.85-10.09 2.63-1.34 6.51 1.01 8.66 5.24.21.41.39.83.55 1.24 1.56-.89 3.1-1.81 4.6-2.77-.24-.28-.48-.58-.71-.89-2.79-3.84-3.12-8.36-.74-10.1 2.39-1.73 6.58-.02 9.38 3.82.24.33.45.66.66 1 1.38-1.11 2.74-2.25 4.06-3.43-.24-.21-.48-.43-.71-.66-3.36-3.36-4.39-7.77-2.31-9.86 2.09-2.08 6.5-1.05 9.86 2.31.25.24.48.5.69.75 1.18-1.3 2.32-2.63 3.43-3.99-.22-.14-.44-.29-.65-.44-3.84-2.79-5.55-6.99-3.82-9.38 1.74-2.39 6.26-2.06 10.1.73.23.16.44.34.65.51.95-1.45 1.86-2.93 2.74-4.43-.18-.08-.36-.16-.54-.25-4.23-2.15-6.58-6.03-5.24-8.66 1.34-2.63 5.86-3.01 10.09-.85.19.1.36.2.54.3.7-1.57 1.36-3.16 1.98-4.76-.12-.04-.24-.06-.35-.1-4.52-1.47-7.44-4.93-6.53-7.74.91-2.81 5.31-3.89 9.83-2.42.12.04.24.08.36.13.44-1.64.84-3.29 1.19-4.97-.04-.01-.08-.01-.12-.02-4.69-.74-8.12-3.71-7.66-6.62.46-2.91 4.64-4.67 9.33-3.93.04.01.08.02.12.02.17-1.67.3-3.35.39-5.04-4.7-.07-8.48-2.43-8.48-5.35zm-24.48-38.69c1.27 2.2.52 5.02-1.69 6.3-2.2 1.27-5.02.52-6.3-1.69a4.6 4.6 0 011.69-6.29 4.598 4.598 0 016.3 1.68zm-50.35-34.09c0-3.59-1.14-6.9-3.07-9.62 20.43 3.35 38.37 14.1 50.96 29.42-3.32-.31-6.76.36-9.87 2.15-4.16 2.4-6.88 6.33-7.88 10.67-8.96-10.44-21.35-17.84-35.42-20.46 3.24-3.04 5.28-7.36 5.28-12.16zm32.4 72.78c0 20.97-13.16 38.86-31.66 45.88a54.434 54.434 0 017.15-31.71 54.402 54.402 0 0123.88-22.04c.41 2.56.63 5.19.63 7.87zM99.96 22.59c2.55 0 4.61 2.06 4.61 4.61 0 2.54-2.06 4.61-4.61 4.61-2.55 0-4.61-2.06-4.61-4.61 0-2.55 2.06-4.61 4.61-4.61zm-.01 28.31c11.77 0 22.57 4.15 31.03 11.06a54.404 54.404 0 01-31.03 9.66c-11.52 0-22.21-3.57-31.03-9.66 8.46-6.91 19.26-11.06 31.03-11.06zm-17.4 94.95c-18.51-7.02-31.67-24.91-31.67-45.88 0-2.68.22-5.31.64-7.87a54.402 54.402 0 0123.88 22.04 54.34 54.34 0 017.15 31.71zm3.81-128.27a16.55 16.55 0 00-3.07 9.62c0 4.8 2.04 9.11 5.29 12.15-14.08 2.62-26.47 10.02-35.43 20.46-1.01-4.34-3.73-8.26-7.88-10.67a16.611 16.611 0 00-9.87-2.15c12.58-15.32 30.52-26.07 50.96-29.41zm-53.42 43.7c1.27-2.21 4.09-2.96 6.3-1.69a4.61 4.61 0 011.69 6.29c-1.27 2.21-4.09 2.96-6.3 1.69a4.6 4.6 0 01-1.69-6.29zm-4.34 60.64c-3.11 1.8-5.41 4.45-6.8 7.48a83.3 83.3 0 01-5.35-29.43c0-10.36 1.9-20.28 5.35-29.44 1.39 3.04 3.69 5.69 6.8 7.48 4.15 2.4 8.9 2.79 13.16 1.5a61.542 61.542 0 00-3.49 20.45c0 7.17 1.24 14.05 3.49 20.45-4.26-1.28-9.01-.89-13.16 1.51zm4.34 16.74a4.613 4.613 0 116.3 1.69 4.619 4.619 0 01-6.3-1.69zm50.35 34.08c0 3.59 1.14 6.9 3.07 9.62-20.43-3.35-38.37-14.1-50.96-29.42 3.32.31 6.76-.36 9.87-2.15 4.16-2.4 6.88-6.33 7.88-10.66 8.96 10.44 21.35 17.84 35.42 20.46-3.24 3.04-5.28 7.35-5.28 12.15zm16.67 4.61c-2.55 0-4.61-2.06-4.61-4.61s2.06-4.61 4.61-4.61c2.55 0 4.61 2.06 4.61 4.61s-2.07 4.61-4.61 4.61zm0-60.71c-9.21 0-16.67-7.46-16.67-16.67S90.75 83.3 99.96 83.3s16.67 7.46 16.67 16.67c-.01 9.2-7.47 16.67-16.67 16.67zm13.61 65.71c1.92-2.72 3.05-6.03 3.05-9.62 0-4.8-2.04-9.11-5.28-12.15 14.07-2.63 26.46-10.03 35.42-20.46 1.01 4.34 3.73 8.26 7.88 10.66 3.11 1.79 6.55 2.46 9.87 2.15-12.58 15.33-30.51 26.07-50.94 29.42zm53.4-43.69a4.619 4.619 0 01-6.3 1.69 4.619 4.619 0 01-1.69-6.3c1.27-2.21 4.09-2.96 6.3-1.69s2.96 4.09 1.69 6.3zm11.14-9.26a16.581 16.581 0 00-6.8-7.49c-4.15-2.4-8.9-2.79-13.16-1.5 2.25-6.4 3.48-13.28 3.48-20.45s-1.24-14.05-3.48-20.45c4.25 1.29 9 .89 13.16-1.5 3.11-1.8 5.41-4.45 6.8-7.49a83.315 83.315 0 015.35 29.44c.01 10.37-1.9 20.29-5.35 29.44z"/><path class="st0" d="M39.04 20.66c-1.32 1.02-2.61 2.06-3.88 3.14.37.46.7.94.99 1.41 1.34-1.15 2.72-2.26 4.13-3.34-.43-.36-.84-.76-1.24-1.21zM24.16 34.74c.44.39.84.8 1.21 1.22 1.14-1.33 2.31-2.63 3.52-3.89-.47-.3-.94-.64-1.39-1.02-1.14 1.2-2.25 2.43-3.34 3.69zm7.75 136.99c-.27.26-.54.51-.81.75 1.28 1.22 2.6 2.4 3.94 3.55.17-.27.35-.55.55-.82.15-.2.3-.39.45-.58-1.26-1.08-2.5-2.2-3.71-3.34-.14.15-.27.3-.42.44zm12.32 9.75c-.25.35-.52.67-.8.99 1.47 1.01 2.97 1.99 4.5 2.92.14-.35.3-.7.48-1.05.09-.17.19-.34.28-.51-1.42-.87-2.82-1.78-4.2-2.72-.09.12-.17.25-.26.37zm13.69 7.71c-.22.43-.46.83-.71 1.22 1.62.77 3.27 1.5 4.95 2.18a14 14 0 01.33-1.23c.05-.15.11-.29.16-.44-1.55-.64-3.08-1.31-4.59-2.02-.05.09-.09.19-.14.29zM47.7 14.69c.29.52.54 1.05.74 1.57 1.52-.93 3.06-1.83 4.62-2.69-.37-.43-.72-.89-1.05-1.39-1.46.8-2.9 1.64-4.31 2.51zm13.77-7.06c.2.56.36 1.13.48 1.68 1.65-.69 3.32-1.34 5.02-1.94-.31-.48-.59-.99-.84-1.54-1.58.56-3.13 1.16-4.66 1.8zM76.15 2.8c.11.59.17 1.18.2 1.74 1.75-.43 3.51-.81 5.29-1.15a11.6 11.6 0 01-.6-1.66c-1.65.32-3.28.68-4.89 1.07zM21.27 160.17c-.25.18-.5.35-.76.51 1.06 1.39 2.16 2.75 3.29 4.08.18-.2.36-.4.55-.59.22-.22.44-.42.66-.62a97.648 97.648 0 01-3.12-3.87c-.2.17-.4.34-.62.49zm51.37 34.48c-.16.49-.34.95-.55 1.4 1.73.5 3.49.97 5.26 1.38.03-.44.07-.89.14-1.35.02-.13.05-.26.07-.39-1.64-.38-3.26-.8-4.86-1.27-.01.08-.03.16-.06.23zM1.79 117.69l-.24.03c.3 1.68.64 3.34 1.03 4.99.05-.02.1-.04.15-.05.5-.16 1-.29 1.49-.39-.37-1.61-.71-3.24-1.01-4.89-.46.12-.93.23-1.42.31zm196.07-38.6c-.35-1.64-.73-3.26-1.16-4.87-.6.17-1.19.28-1.78.36.44 1.64.83 3.29 1.19 4.96.56-.18 1.14-.33 1.75-.45zM2.58 86.55c-.55-.01-1.12-.05-1.69-.13-.22 1.65-.41 3.32-.55 5 .58.02 1.14.07 1.69.15.14-1.69.33-3.36.55-5.02zm12.39-39.27c.5.31.96.64 1.39.98.91-1.47 1.86-2.92 2.85-4.33-.51-.23-1.01-.5-1.51-.81a82.71 82.71 0 00-2.73 4.16zM198.1 94.77c.58-.08 1.18-.13 1.81-.14-.09-1.68-.22-3.35-.39-5.01-.62.08-1.22.11-1.81.11.17 1.67.31 3.35.39 5.04zM12.57 147.1c-.22.11-.43.21-.65.31.82 1.53 1.69 3.03 2.59 4.51.16-.13.32-.26.49-.38.3-.22.6-.41.91-.6-.86-1.42-1.68-2.86-2.47-4.32l-.87.48zM4.2 71.13c-.48 1.59-.92 3.2-1.32 4.83.57.11 1.12.26 1.64.44.41-1.65.85-3.29 1.34-4.9-.54-.09-1.1-.21-1.66-.37zm3.6-10.02c.54.21 1.06.46 1.54.72.67-1.58 1.37-3.13 2.11-4.67-.53-.16-1.07-.35-1.6-.59-.72 1.5-1.4 3.01-2.05 4.54zm-1.78 71.71c-.16.05-.32.09-.47.14.57 1.63 1.18 3.23 1.82 4.82.12-.06.23-.13.35-.19.4-.2.79-.37 1.19-.53-.62-1.53-1.21-3.09-1.76-4.66-.37.14-.74.29-1.13.42zm-4.33-30.84c-.55.07-1.11.11-1.69.11.04 1.69.11 3.37.23 5.04.57-.09 1.14-.13 1.69-.15-.12-1.66-.19-3.33-.23-5zm171.53-67.52c1.17 1.31 2.31 2.65 3.4 4.02.39-.44.82-.86 1.29-1.27-1.04-1.29-2.12-2.56-3.22-3.8-.48.4-.97.74-1.47 1.05zm-7.95 138.95c-1.24 1.1-2.51 2.18-3.81 3.22.12.16.25.31.37.47.24.33.45.66.66 1 1.38-1.11 2.74-2.25 4.06-3.43a14.602 14.602 0 01-1.28-1.26zm10.79-11.26a96.42 96.42 0 01-3.25 3.77c.19.17.38.35.57.53.25.24.48.5.69.75 1.18-1.3 2.32-2.63 3.43-3.99-.22-.14-.44-.29-.65-.44-.27-.19-.53-.4-.79-.62zm6.45-115.54c.94 1.45 1.85 2.93 2.71 4.43.46-.36.95-.71 1.49-1.02-.83-1.44-1.7-2.85-2.6-4.24-.53.33-1.06.6-1.6.83zM162.2 23.9c1.37 1.12 2.71 2.28 4.02 3.48.31-.5.66-.99 1.05-1.47-1.23-1.12-2.49-2.2-3.77-3.26-.42.46-.86.88-1.3 1.25zm22.74 125.46a99.75 99.75 0 01-2.61 4.23c.27.17.54.35.81.54.23.16.44.34.65.51.95-1.45 1.86-2.93 2.74-4.43-.18-.08-.36-.16-.54-.25-.37-.18-.71-.39-1.05-.6zm11.15-28.85c-.35 1.63-.74 3.25-1.16 4.85.46.1.92.21 1.38.37.12.04.24.08.36.13.44-1.64.84-3.29 1.19-4.97-.04-.01-.08-.01-.12-.02-.58-.09-1.13-.21-1.65-.36zm-4.42 14.85c-.6 1.55-1.24 3.09-1.91 4.6.36.15.72.3 1.08.49.19.1.36.2.54.3.7-1.57 1.36-3.16 1.98-4.76-.12-.04-.24-.06-.35-.1-.47-.16-.91-.34-1.34-.53zm6.05-25.2c.55.02 1.11.07 1.68.16.04.01.08.02.12.02.17-1.67.3-3.35.39-5.04-.62 0-1.22-.06-1.81-.14-.08 1.68-.21 3.35-.38 5zm-7.91-50.06c.69 1.56 1.35 3.15 1.96 4.75.52-.28 1.07-.53 1.65-.75-.6-1.55-1.23-3.09-1.9-4.61-.57.26-1.14.45-1.71.61zm-36.99 122.74c-1.4.9-2.83 1.76-4.28 2.58.07.13.14.25.21.38.21.41.39.83.55 1.24 1.56-.89 3.1-1.81 4.6-2.77-.24-.28-.48-.58-.71-.89-.13-.18-.25-.36-.37-.54zm-28.63 12.4c-1.62.41-3.25.78-4.9 1.11.01.08.03.16.04.24.08.52.13 1.02.15 1.52 1.79-.35 3.56-.75 5.31-1.2-.18-.4-.34-.82-.48-1.26-.04-.14-.07-.27-.12-.41zM106.83.16c-.08.61-.21 1.18-.37 1.74 1.82.12 3.62.29 5.41.5-.06-.57-.09-1.17-.07-1.78-1.63-.19-3.29-.34-4.97-.46zm42.87 15.03c1.54.91 3.06 1.85 4.54 2.84.22-.54.48-1.08.79-1.62-1.39-.91-2.8-1.8-4.23-2.64-.34.51-.72.99-1.1 1.42zM91.39.3c.01.61-.02 1.2-.09 1.76 1.8-.16 3.61-.27 5.43-.33-.15-.54-.27-1.12-.34-1.73-1.68.06-3.35.16-5 .3zm17.36 197.56c-1.66.15-3.33.25-5.01.32 0 .08.01.15.01.22 0 .53-.03 1.04-.09 1.54 1.82-.06 3.63-.18 5.43-.34-.11-.44-.21-.88-.29-1.34-.03-.14-.04-.27-.05-.4zM136.03 8.51c1.68.66 3.33 1.37 4.96 2.12.13-.57.29-1.14.51-1.72-1.51-.69-3.04-1.34-4.59-1.96-.27.56-.56 1.08-.88 1.56zm-42.96 189.5c-1.68-.12-3.35-.27-5-.47l-.03.21c-.08.52-.2 1.02-.33 1.51 1.79.22 3.6.39 5.42.51-.04-.45-.07-.9-.07-1.37 0-.13.01-.26.01-.39zm45.94-7.83c-1.53.66-3.08 1.29-4.65 1.88.03.1.07.19.11.29.15.48.28.95.37 1.42 1.7-.63 3.37-1.31 5.02-2.03-.22-.35-.44-.71-.63-1.1-.07-.15-.14-.3-.22-.46zM121.5 4.06c1.77.39 3.52.83 5.25 1.32.03-.58.1-1.17.22-1.77-1.6-.45-3.22-.85-4.85-1.22-.17.59-.38 1.14-.62 1.67z"/></svg>