<svg xmlns="http://www.w3.org/2000/svg" width="115.33" height="115.33" viewBox="0 0 115.33 115.33" overflow="visible"><path d="M109.73 53.99c.43.15.88.3 1.35.45.47.15.94.3 1.42.45.48.15.95.3 1.41.45.46.15.9.31 1.32.46l.03.46.03.46c.01.16.02.31.02.46.01.16.01.31.02.47 0 .16.01.31.01.47v1.4c-.41.15-.85.3-1.3.46-.45.15-.92.3-1.39.45-.47.15-.94.3-1.4.45-.46.15-.91.3-1.33.46l-.06 1.1c-.02.37-.05.73-.08 1.1-.03.36-.06.73-.1 1.09-.04.36-.08.72-.13 1.08.39.24.8.49 1.23.74.42.25.86.5 1.29.75.43.25.87.5 1.28.75.42.25.82.49 1.19.73-.05.3-.1.6-.16.91-.05.3-.11.6-.17.9-.06.3-.12.6-.19.9-.06.3-.13.59-.2.89-.44.06-.9.11-1.38.15-.48.05-.97.09-1.46.13l-1.47.12c-.48.04-.96.09-1.4.14-.1.35-.2.71-.31 1.06l-.33 1.05c-.11.35-.23.69-.35 1.04-.12.34-.24.69-.37 1.03.32.32.67.66 1.03 1 .36.34.73.68 1.1 1.03.37.34.74.69 1.1 1.02.36.34.7.67 1.01.99-.12.28-.23.56-.36.84-.12.28-.24.56-.37.84-.13.28-.25.55-.38.83-.13.28-.26.55-.4.82-.44-.04-.91-.1-1.39-.16s-.97-.13-1.47-.21c-.49-.07-.99-.15-1.47-.21-.48-.07-.96-.13-1.41-.18-.17.32-.35.64-.53.96-.18.32-.36.63-.55.95l-.57.93c-.19.31-.39.62-.59.92.25.39.52.79.8 1.21.28.41.57.83.86 1.25.29.42.58.83.85 1.24.27.41.54.81.78 1.19-.18.25-.36.5-.54.74-.18.25-.37.49-.55.73-.19.24-.37.48-.56.72-.19.24-.38.47-.57.71-.42-.14-.87-.3-1.32-.47-.45-.17-.92-.35-1.39-.53-.47-.18-.94-.36-1.4-.54-.46-.17-.91-.34-1.34-.49-.24.27-.49.55-.73.81-.25.27-.5.53-.75.8-.25.26-.51.52-.77.78s-.52.51-.78.76c.16.43.33.89.52 1.35.18.46.38.93.57 1.41.19.47.38.94.56 1.4.18.46.35.91.5 1.33l-.69.6c-.23.2-.46.4-.7.59-.23.2-.47.39-.71.58l-.72.57c-.38-.23-.79-.49-1.2-.75-.41-.27-.83-.55-1.25-.83l-1.26-.84c-.42-.27-.82-.53-1.21-.77-.3.21-.6.42-.9.62-.3.2-.6.41-.91.6-.31.2-.61.39-.92.59-.31.19-.62.38-.94.57.06.46.13.94.21 1.43.08.49.16 1 .25 1.5.08.5.17 1 .24 1.49.08.49.14.96.2 1.41-.27.14-.54.29-.81.43s-.54.28-.82.42c-.27.14-.55.27-.82.4-.28.13-.55.26-.83.39-.33-.31-.66-.65-1.01-1.01-.34-.35-.69-.72-1.05-1.09-.35-.37-.7-.74-1.05-1.1-.35-.36-.69-.71-1.02-1.03-.34.14-.68.28-1.02.41-.34.13-.68.26-1.03.39-.34.12-.69.25-1.04.37-.35.12-.7.23-1.05.35-.04.46-.08.94-.11 1.44l-.09 1.51-.09 1.5c-.03.49-.07.97-.12 1.42-.29.08-.59.16-.89.23-.3.08-.59.15-.89.22-.3.07-.6.14-.9.2-.3.07-.6.13-.9.19-.25-.38-.5-.78-.76-1.2-.26-.42-.52-.86-.78-1.29-.26-.44-.52-.88-.78-1.3-.26-.43-.52-.84-.77-1.23-.36.06-.72.11-1.08.16-.36.05-.73.1-1.09.14l-1.1.12c-.37.04-.74.07-1.11.1-.15.44-.29.9-.43 1.38-.14.48-.28.96-.42 1.45-.14.49-.28.97-.42 1.44-.14.47-.29.92-.43 1.35-.16.01-.31.01-.47.02-.16.01-.31.01-.47.02-.16.01-.31.01-.47.01-.16 0-.31.01-.47.01h-.47c-.16 0-.31 0-.47-.01-.16 0-.31-.01-.47-.01-.15 0-.31-.01-.46-.01-.16-.42-.33-.88-.49-1.34-.16-.47-.32-.95-.48-1.44-.16-.49-.32-.97-.48-1.45-.16-.47-.32-.94-.48-1.37-.37-.03-.74-.05-1.11-.08-.37-.03-.74-.06-1.11-.1l-1.1-.12c-.36-.04-.73-.1-1.09-.15-.24.39-.48.81-.72 1.25-.24.43-.49.88-.73 1.32-.25.44-.49.88-.73 1.31-.24.42-.48.83-.72 1.22l-.92-.18c-.3-.06-.61-.12-.91-.19-.3-.07-.6-.14-.91-.21-.3-.07-.6-.15-.9-.22-.06-.45-.12-.93-.17-1.42-.05-.49-.1-1-.15-1.51l-.15-1.52c-.05-.5-.11-.99-.17-1.45l-1.07-.33c-.35-.11-.71-.23-1.06-.35-.35-.12-.7-.25-1.05-.38-.35-.13-.7-.26-1.04-.4-.32.33-.65.68-.99 1.04-.34.36-.68.74-1.02 1.11-.34.38-.68.75-1.01 1.11-.33.36-.66.7-.98 1.02-.29-.12-.57-.25-.86-.38-.29-.13-.57-.26-.85-.39s-.56-.27-.84-.41c-.28-.14-.56-.28-.83-.42.04-.45.09-.93.15-1.42.06-.49.12-1 .19-1.5.07-.51.13-1.01.19-1.51s.11-.98.16-1.44c-.32-.18-.65-.37-.97-.56-.32-.19-.64-.38-.96-.58-.32-.2-.63-.4-.95-.6-.31-.2-.62-.41-.93-.62-.39.25-.79.52-1.2.8-.41.28-.83.57-1.25.86-.42.29-.83.58-1.24.85-.41.27-.81.54-1.19.77l-.75-.57c-.25-.19-.49-.38-.74-.58-.24-.2-.49-.39-.73-.59l-.72-.6c.13-.43.29-.88.45-1.34.16-.46.34-.94.51-1.41.18-.47.35-.95.52-1.42.17-.47.33-.92.47-1.36-.28-.25-.55-.51-.83-.76l-.81-.78c-.27-.26-.53-.53-.79-.8l-.78-.81c-.43.15-.88.32-1.34.5-.46.18-.93.37-1.4.55-.47.19-.94.37-1.4.55-.46.18-.91.34-1.33.49-.21-.24-.41-.47-.61-.71l-.6-.72c-.2-.24-.4-.49-.59-.73-.19-.25-.39-.49-.58-.74.23-.39.48-.79.75-1.21.26-.42.54-.84.82-1.26a91.66 91.66 0 001.6-2.49c-.22-.31-.43-.62-.64-.93-.21-.31-.41-.62-.62-.94-.2-.32-.4-.63-.6-.95-.2-.32-.39-.64-.58-.97-.46.05-.94.12-1.44.19-.49.07-1 .15-1.5.22-.5.08-1 .15-1.49.22s-.96.13-1.41.17c-.15-.27-.29-.55-.44-.83-.11-.37-.25-.65-.39-.93s-.28-.56-.41-.84c-.13-.28-.27-.57-.4-.85.31-.33.65-.66 1-1 .35-.34.72-.69 1.08-1.04.37-.35.74-.7 1.09-1.04.36-.34.7-.68 1.02-1.01-.14-.34-.28-.69-.42-1.04-.14-.35-.27-.7-.4-1.05-.13-.35-.26-.7-.38-1.06-.1-.37-.22-.73-.34-1.09-.46-.05-.95-.09-1.44-.14l-1.52-.12c-.51-.04-1.02-.08-1.51-.12-.49-.04-.97-.09-1.42-.15l-.24-.9c-.08-.3-.15-.6-.22-.91l-.21-.91c-.07-.3-.14-.61-.2-.92.38-.24.78-.49 1.2-.75.42-.25.85-.51 1.29-.76.44-.26.87-.51 1.3-.77.42-.25.84-.51 1.22-.75-.06-.36-.12-.73-.17-1.1l-.15-1.1a20.9 20.9 0 01-.12-1.11c-.04-.37-.07-.74-.1-1.12-.44-.16-.9-.31-1.38-.46-.48-.15-.97-.3-1.45-.46-.49-.15-.97-.3-1.45-.46-.47-.15-.93-.31-1.36-.46-.01-.16-.01-.32-.02-.47-.01-.16-.01-.31-.02-.47-.01-.16-.01-.31-.02-.47 0-.16-.01-.32-.01-.47v-.47-.47c0-.16 0-.31.01-.47 0-.16.01-.31.01-.47.42-.16.88-.31 1.34-.46.47-.15.95-.31 1.43-.46.48-.15.97-.3 1.44-.45.47-.15.93-.3 1.37-.46.02-.37.04-.74.07-1.12l.09-1.11c.03-.37.07-.74.11-1.1.04-.37.09-.73.14-1.09-.39-.25-.81-.5-1.24-.75-.43-.25-.88-.51-1.32-.76-.44-.25-.88-.51-1.31-.76-.43-.25-.84-.5-1.22-.75.06-.3.11-.61.17-.91.06-.3.12-.61.19-.91.06-.3.13-.6.2-.9l.21-.9c.45-.06.92-.1 1.41-.15l1.5-.12 1.51-.12c.5-.04.98-.09 1.44-.14.1-.36.21-.71.32-1.06.11-.35.23-.7.34-1.05.12-.35.24-.7.37-1.04.13-.35.25-.69.39-1.03-.33-.33-.68-.66-1.05-1.01-.37-.34-.75-.69-1.12-1.04-.38-.35-.75-.69-1.11-1.03-.36-.34-.71-.67-1.03-1 .12-.28.25-.56.37-.84l.39-.84c.13-.28.26-.55.4-.83.13-.28.27-.55.41-.82.45.05.92.11 1.41.17.49.07.99.14 1.49.22.5.07 1.01.15 1.5.22s.97.13 1.43.18c.18-.32.36-.64.55-.95.19-.32.37-.63.57-.94.19-.31.39-.62.58-.93.2-.31.4-.61.6-.91-.25-.39-.52-.8-.8-1.21-.28-.41-.57-.83-.86-1.25-.29-.42-.58-.84-.86-1.25-.28-.41-.54-.81-.78-1.2.18-.25.37-.49.55-.73l.57-.72c.19-.24.38-.47.58-.71.19-.24.39-.47.58-.7.43.14.88.3 1.34.48.46.17.93.36 1.41.54.47.18.95.37 1.41.54.47.18.92.35 1.36.5.25-.27.49-.54.75-.8l.76-.79c.26-.26.52-.52.78-.77s.53-.51.79-.75c-.16-.43-.33-.88-.51-1.34-.18-.46-.37-.93-.56-1.4-.19-.47-.38-.94-.56-1.39-.18-.46-.35-.9-.49-1.33.23-.2.46-.4.7-.59.23-.2.47-.39.7-.58.24-.19.47-.38.71-.57.24-.19.48-.37.72-.56.39.23.79.49 1.21.76.41.27.84.55 1.26.84.42.28.85.57 1.26.84.42.28.83.54 1.22.79.3-.21.6-.41.91-.61.3-.2.61-.4.92-.59l.93-.57c.31-.19.63-.37.95-.56-.06-.45-.13-.93-.21-1.42-.08-.49-.16-.98-.24-1.48-.08-.5-.16-.99-.24-1.47-.07-.48-.14-.95-.19-1.4.27-.14.54-.28.82-.41.27-.14.55-.27.82-.4.27-.13.55-.26.83-.39.28-.13.56-.25.84-.37.32.31.66.65 1 1 .34.35.69.72 1.04 1.09.35.37.7.74 1.05 1.09.35.36.69.7 1.02 1.02l1.02-.39c.34-.13.68-.25 1.02-.37.34-.12.69-.24 1.04-.35.35-.11.7-.22 1.05-.32.02-.45.06-.93.1-1.42.03-.49.06-.99.1-1.49.03-.5.06-1 .1-1.48.04-.48.08-.95.13-1.39.29-.08.59-.15.88-.22.3-.07.59-.14.89-.2.3-.06.59-.13.89-.19l.9-.18c.25.37.5.78.76 1.19.26.42.51.85.77 1.28.26.43.52.87.78 1.29.26.42.51.83.76 1.22l1.08-.15c.36-.04.72-.09 1.09-.12.36-.04.73-.07 1.09-.1.37-.03.73-.05 1.1-.08.14-.43.28-.88.42-1.35.14-.47.28-.94.42-1.42.14-.48.28-.95.42-1.41.14-.46.29-.91.43-1.32.15 0 .31-.01.46-.01.15 0 .31-.01.46-.01.15 0 .31-.01.46-.01h.46c.16 0 .31 0 .47.01.16 0 .31.01.46.01.15 0 .31.01.46.02.15.01.31.01.46.02.16.42.32.87.48 1.33.16.46.32.94.48 1.42.16.48.32.96.48 1.42.16.47.32.92.48 1.35l1.1.09c.37.03.73.07 1.1.11.36.04.73.09 1.09.13.36.05.72.1 1.08.16.23-.38.47-.79.71-1.21.24-.42.48-.85.72-1.28.24-.43.48-.86.72-1.27.24-.41.47-.81.7-1.18.3.06.6.12.9.19.3.06.6.13.9.2.3.07.6.14.89.21.3.07.59.15.89.23.07.44.12.91.18 1.39.05.48.11.98.15 1.48l.15 1.49c.05.49.11.96.17 1.42.35.11.7.22 1.05.34.35.12.69.24 1.04.36.35.12.69.25 1.03.38.34.13.68.27 1.02.41.31-.32.64-.66.97-1.01.33-.35.66-.72.99-1.08.33-.36.66-.72.99-1.07.33-.35.65-.68.96-.99.28.12.56.25.84.38.28.13.56.26.83.4.28.13.55.27.82.41.27.14.55.28.82.42-.03.44-.08.91-.13 1.39-.05.48-.12.97-.18 1.46s-.13.99-.18 1.47c-.06.48-.11.96-.15 1.41.32.18.64.37.96.56.32.19.63.38.94.57.31.2.62.39.93.6.31.2.61.41.92.62.38-.24.77-.49 1.17-.76.4-.27.81-.55 1.21-.83.41-.28.81-.55 1.21-.82.4-.26.78-.52 1.15-.74.25.18.49.37.74.56.24.19.49.38.73.57.24.19.48.39.72.58l.71.59c-.13.42-.28.86-.44 1.31-.16.45-.33.91-.5 1.38-.17.46-.34.93-.5 1.38-.16.46-.32.9-.46 1.33l.81.75c.27.25.53.51.8.77l.78.78c.26.26.51.53.76.8.42-.15.86-.31 1.31-.48.45-.17.91-.35 1.37-.53.46-.18.91-.35 1.36-.52.45-.17.88-.32 1.29-.46.2.23.4.47.6.7.2.24.4.47.59.71.2.24.39.48.58.72.19.24.38.48.57.73-.22.38-.46.77-.72 1.18-.25.4-.52.82-.79 1.23a86.383 86.383 0 00-1.54 2.43c.21.3.42.6.63.91.21.31.41.61.61.92.2.31.4.62.59.94.19.31.38.63.57.95.45-.05.92-.11 1.39-.18l1.46-.21c.49-.07.98-.14 1.45-.21.47-.06.93-.12 1.37-.16.15.27.29.54.43.82.14.27.28.55.42.82.14.28.27.55.41.83.13.28.27.56.39.84-.3.32-.62.64-.96.97l-1.04 1.01c-.35.34-.71.68-1.05 1.02-.34.34-.68.67-.98.99l.42 1.02c.14.34.27.69.4 1.03.13.34.25.69.38 1.04l.36 1.05c.45.05.92.1 1.41.14.48.04.98.08 1.48.12l1.47.12c.48.04.94.09 1.38.15.08.29.17.59.24.89.08.3.15.59.23.89l.21.9c.07.3.14.6.2.9-.36.24-.75.49-1.16.73-.4.25-.82.5-1.25.75l-1.26.75c-.41.25-.81.5-1.19.74l.18 1.08c.06.36.11.73.15 1.09.05.36.09.73.13 1.1.06.39.09.76.13 1.13zM58.26 68.25c.67 0 1.35-.07 2.01-.2.66-.13 1.31-.33 1.94-.58.63-.26 1.24-.58 1.81-.97.58-.39 1.12-.84 1.62-1.36 1.01-1.04 1.75-2.23 2.24-3.5.49-1.27.72-2.63.69-3.98a10.807 10.807 0 00-3.23-7.48 10.77 10.77 0 00-3.52-2.32c-1.28-.52-2.63-.78-3.98-.78s-2.69.25-3.95.77c-1.26.51-2.43 1.29-3.44 2.32a10.279 10.279 0 00-2.25 3.5 10.66 10.66 0 00.15 7.98 10.64 10.64 0 002.39 3.51 10.76 10.76 0 003.53 2.33c.64.26 1.3.45 1.97.58.67.12 1.34.18 2.02.18zM28.35 38.12c-.59.92-1.15 1.87-1.66 2.84-.51.98-.97 1.98-1.39 3.01s-.78 2.08-1.1 3.16a36.07 36.07 0 00-.8 3.3 102.331 102.331 0 009.59 2.24 99.744 99.744 0 009.6 1.3c.09-.43.21-.86.33-1.27.13-.42.27-.82.43-1.22.16-.4.34-.79.53-1.17.19-.38.4-.75.62-1.12-1.24-1.1-2.51-2.15-3.81-3.15-1.3-1.01-2.62-1.97-3.97-2.89a84.625 84.625 0 00-8.37-5.03zm23.2 54.22c.42-1.6.8-3.2 1.15-4.8.34-1.6.64-3.2.91-4.8a97.537 97.537 0 001.1-9.62 16.38 16.38 0 01-3.68-1.37c-.38-.2-.76-.41-1.13-.64-1.07 1.23-2.1 2.49-3.08 3.78-.98 1.29-1.92 2.6-2.81 3.95-.89 1.34-1.75 2.71-2.56 4.11a97.32 97.32 0 00-2.32 4.26c.93.61 1.89 1.18 2.88 1.71s2 1 3.04 1.44c1.04.43 2.1.81 3.18 1.15s2.19.6 3.32.83zm12.96-69.11a98.39 98.39 0 00-1.13 4.73 96.84 96.84 0 00-1.98 14.29c.43.1.85.22 1.26.35.41.14.82.29 1.22.46.4.17.79.35 1.17.55.38.2.75.41 1.12.64a76.62 76.62 0 003.05-3.74 76.503 76.503 0 005.3-7.95c.8-1.37 1.55-2.77 2.27-4.19-.92-.61-1.87-1.18-2.84-1.7-.98-.52-1.98-1-3-1.44-1.03-.43-2.08-.82-3.15-1.16-1.09-.32-2.18-.61-3.29-.84zM87.66 77.1c.58-.92 1.12-1.87 1.62-2.84.5-.98.95-1.98 1.35-3.01.4-1.03.76-2.08 1.07-3.15.31-1.07.56-2.17.77-3.28-1.58-.45-3.16-.86-4.74-1.23s-3.16-.7-4.74-1c-1.58-.29-3.17-.55-4.75-.76-1.59-.21-3.17-.38-4.77-.52-.09.43-.2.85-.33 1.26-.13.41-.27.82-.43 1.22a15.383 15.383 0 01-1.13 2.28c1.24 1.09 2.5 2.14 3.79 3.15 1.29 1 2.61 1.96 3.95 2.88 1.34.92 2.71 1.79 4.1 2.62 1.39.84 2.8 1.63 4.24 2.38zM50.41 23.13c-1.11.22-2.2.49-3.26.82-1.07.32-2.11.7-3.13 1.12-1.02.42-2.01.89-2.98 1.4-.97.51-1.91 1.07-2.81 1.67a103.292 103.292 0 005.31 8.31c.94 1.33 1.91 2.64 2.91 3.91 1 1.28 2.03 2.53 3.08 3.76.36-.22.73-.43 1.1-.62.38-.19.76-.37 1.15-.54.39-.16.79-.31 1.2-.44.41-.13.83-.24 1.25-.34a77.935 77.935 0 00-1.34-9.67c-.32-1.59-.69-3.16-1.11-4.73-.4-1.55-.87-3.1-1.37-4.65zm22.94 30.99c1.62-.09 3.23-.23 4.83-.42 1.6-.19 3.18-.44 4.75-.73 1.57-.29 3.12-.63 4.67-1.02 1.54-.39 3.07-.82 4.59-1.29a36.052 36.052 0 00-5.29-12.27c-1.4.8-2.78 1.62-4.13 2.47-1.35.86-2.67 1.74-3.97 2.65-1.3.92-2.57 1.86-3.81 2.83-1.25.97-2.47 1.98-3.66 3.01.23.36.44.74.64 1.12.2.38.39.77.56 1.17s.33.8.47 1.21c.12.42.24.84.35 1.27zm-7.62 38.19c1.11-.23 2.2-.52 3.26-.85 1.07-.33 2.11-.72 3.12-1.15 1.02-.43 2.01-.91 2.97-1.44.96-.53 1.9-1.09 2.8-1.71-.83-1.44-1.68-2.86-2.57-4.24-.89-1.39-1.8-2.75-2.74-4.08a102.138 102.138 0 00-6.01-7.68c-.36.22-.72.43-1.09.63-.37.2-.76.38-1.15.54-.39.17-.79.31-1.2.45-.41.13-.83.25-1.25.35.12 1.64.3 3.28.53 4.9.23 1.62.5 3.23.83 4.83.32 1.6.7 3.18 1.12 4.76.41 1.58.87 3.14 1.38 4.69zM28.91 77.09c1.43-.81 2.83-1.65 4.21-2.52 1.37-.87 2.72-1.77 4.04-2.7 1.32-.93 2.61-1.89 3.87-2.87 1.26-.99 2.49-2 3.7-3.04-.23-.36-.45-.73-.65-1.12-.2-.38-.39-.77-.56-1.17-.17-.4-.33-.81-.46-1.22-.14-.41-.26-.84-.36-1.27-1.64.09-3.26.24-4.88.43-1.61.2-3.22.44-4.8.74-1.59.3-3.17.64-4.74 1.03a85.2 85.2 0 00-4.67 1.31c.24 1.12.54 2.23.89 3.31s.75 2.14 1.19 3.18c.45 1.04.94 2.05 1.48 3.03.54 1 1.12 1.96 1.74 2.88z" fill="#514539"/></svg>